<?xml version="1.0" standalone="no"?>
<!DOCTYPE svg PUBLIC "-//W3C//DTD SVG 20010904//EN"
 "http://www.w3.org/TR/2001/REC-SVG-20010904/DTD/svg10.dtd">
<svg version="1.0" xmlns="http://www.w3.org/2000/svg"
 width="587.000000pt" height="202.000000pt" viewBox="0 0 587.000000 202.000000"
 preserveAspectRatio="xMidYMid meet">

<g transform="translate(0.000000,202.000000) scale(0.100000,-0.100000)"
fill="#000000" stroke="none">
<path d="M980 1653 c-105 -9 -267 -64 -253 -86 3 -6 1 -7 -6 -3 -19 12 -105
-50 -174 -125 -112 -121 -170 -268 -169 -434 0 -191 58 -332 192 -465 132
-132 274 -192 456 -192 118 -1 177 13 294 69 79 38 107 59 175 127 129 131
188 276 186 461 0 109 -18 182 -71 294 -107 224 -378 377 -630 354z m175 -48
c181 -38 346 -165 423 -326 52 -109 67 -173 66 -289 -1 -238 -135 -446 -352
-547 -243 -113 -510 -66 -698 123 -85 84 -146 197 -170 314 -41 195 23 409
165 551 156 155 358 217 566 174z"/>
<path d="M1010 1524 c-11 -12 -10 -18 3 -32 16 -15 18 -15 34 0 13 14 14 20 3
32 -7 9 -16 16 -20 16 -4 0 -13 -7 -20 -16z"/>
<path d="M874 1505 c-8 -19 3 -35 26 -35 22 0 33 23 17 39 -15 15 -37 14 -43
-4z"/>
<path d="M1141 1506 c-9 -11 -8 -18 5 -31 15 -15 19 -15 32 -1 17 17 10 46
-11 46 -8 0 -20 -6 -26 -14z"/>
<path d="M757 1464 c-10 -10 -9 -42 2 -48 18 -11 42 6 39 28 -3 21 -28 33 -41
20z"/>
<path d="M1267 1464 c-12 -12 -8 -42 6 -47 21 -8 39 8 35 29 -3 19 -29 30 -41
18z"/>
<path d="M650 1374 c-11 -12 -10 -18 4 -32 16 -16 18 -16 31 2 11 14 12 23 4
33 -15 17 -24 16 -39 -3z"/>
<path d="M1370 1374 c-11 -12 -10 -18 4 -32 16 -16 18 -16 31 2 11 14 12 23 4
33 -15 17 -24 16 -39 -3z"/>
<path d="M1093 1218 c-95 -93 -106 -117 -72 -154 l23 -25 -27 -26 -26 -27 -25
23 c-17 16 -32 22 -48 18 -35 -9 -188 -169 -188 -197 0 -30 99 -130 129 -130
26 0 124 88 114 103 -3 5 -1 7 5 3 12 -7 82 71 82 93 0 8 -10 25 -22 38 l-22
24 26 25 26 26 30 -22 c18 -13 37 -20 48 -16 34 11 184 171 184 196 0 31 -99
130 -130 130 -15 0 -51 -28 -107 -82z"/>
<path d="M564 1265 c-8 -19 3 -35 26 -35 19 0 30 17 23 38 -6 17 -42 15 -49
-3z"/>
<path d="M1447 1267 c-8 -21 8 -39 29 -35 27 5 25 42 -2 46 -12 2 -24 -3 -27
-11z"/>
<path d="M514 1145 c-9 -22 22 -53 37 -38 15 15 7 47 -14 51 -9 2 -20 -4 -23
-13z"/>
<path d="M1507 1153 c-11 -10 -8 -41 4 -49 16 -9 43 21 36 40 -7 16 -28 21
-40 9z"/>
<path d="M500 1014 c-11 -12 -10 -18 3 -32 16 -15 18 -15 34 0 13 14 14 20 3
32 -7 9 -16 16 -20 16 -4 0 -13 -7 -20 -16z"/>
<path d="M1520 1014 c-11 -12 -10 -18 3 -32 16 -15 18 -15 34 0 13 14 14 20 3
32 -7 9 -16 16 -20 16 -4 0 -13 -7 -20 -16z"/>
<path d="M521 890 c-19 -11 -9 -45 14 -45 13 0 21 8 23 21 3 23 -17 37 -37 24z"/>
<path d="M1512 891 c-19 -11 -11 -45 11 -49 9 -2 20 4 23 13 9 21 -16 47 -34
36z"/>
<path d="M564 755 c-8 -19 3 -35 26 -35 19 0 30 17 23 38 -6 17 -42 15 -49 -3z"/>
<path d="M1447 757 c-8 -21 8 -39 29 -35 27 5 25 42 -2 46 -12 2 -24 -3 -27
-11z"/>
<path d="M650 654 c-11 -12 -10 -18 4 -32 16 -16 18 -16 31 2 11 14 12 23 4
33 -15 17 -24 16 -39 -3z"/>
<path d="M1370 654 c-11 -12 -10 -18 4 -32 16 -16 18 -16 31 2 11 14 12 23 4
33 -15 17 -24 16 -39 -3z"/>
<path d="M761 580 c-19 -11 -9 -45 14 -45 13 0 21 8 23 21 3 23 -17 37 -37 24z"/>
<path d="M1271 580 c-19 -11 -9 -45 14 -45 13 0 21 8 23 21 3 23 -17 37 -37
24z"/>
<path d="M880 525 c-15 -18 -6 -45 13 -45 8 0 20 6 26 14 9 11 8 18 -4 30 -20
20 -20 20 -35 1z"/>
<path d="M1145 524 c-15 -15 -15 -19 -1 -32 17 -17 46 -10 46 11 0 8 -6 20
-14 26 -11 9 -18 8 -31 -5z"/>
<path d="M1010 504 c-11 -12 -10 -18 3 -32 16 -15 18 -15 34 0 13 14 14 20 3
32 -7 9 -16 16 -20 16 -4 0 -13 -7 -20 -16z"/>
<path d="M3020 995 l0 -435 105 0 105 0 0 435 c0 428 0 435 -20 435 -20 0 -20
-7 -20 -415 l0 -415 -65 0 -65 0 0 396 0 395 23 -3 22 -3 3 -367 c2 -318 4
-368 17 -368 13 0 15 51 15 390 l0 390 -60 0 -60 0 0 -435z"/>
<path d="M4620 1426 c0 -3 56 -91 124 -195 l124 -191 121 191 c67 104 121 192
121 195 0 3 -10 4 -22 2 -17 -2 -47 -42 -118 -155 -52 -84 -98 -153 -101 -153
-6 0 -136 194 -173 258 -5 8 1 12 18 12 22 0 36 -16 87 -95 34 -52 65 -95 69
-95 27 0 13 41 -45 130 l-65 100 -70 0 c-38 0 -70 -2 -70 -4z"/>
<path d="M2020 990 l0 -430 183 0 c257 0 333 17 405 91 64 66 81 223 34 303
l-21 36 21 46 c17 39 20 62 16 134 -6 123 -41 181 -143 229 -22 11 -82 16
-217 19 l-188 4 0 -186 0 -186 149 0 c165 0 205 9 226 51 19 36 19 63 0 104
-23 46 -51 55 -180 55 l-115 0 0 -60 c0 -53 2 -60 20 -60 17 0 20 7 20 40 l0
40 99 0 c92 0 101 -2 115 -22 24 -34 20 -75 -8 -93 -19 -13 -50 -15 -157 -13
l-134 3 0 140 0 140 140 3 c204 4 269 -19 317 -111 30 -60 30 -165 0 -232
l-23 -49 23 -31 c17 -23 24 -47 26 -103 7 -118 -31 -188 -123 -228 -33 -15
-78 -19 -242 -22 l-203 -4 0 411 c0 404 0 411 -20 411 -20 0 -20 -7 -20 -430z"/>
<path d="M3812 1402 c-204 -73 -330 -299 -278 -501 46 -181 183 -304 368 -332
92 -14 167 3 273 60 l70 37 3 177 2 177 -155 0 c-130 0 -155 -2 -155 -15 0
-12 24 -15 133 -17 l132 -3 3 -145 3 -146 -68 -36 c-130 -69 -240 -73 -363
-12 -81 41 -151 112 -188 194 -22 46 -26 70 -26 150 -1 91 1 100 37 172 78
159 233 240 408 216 68 -9 149 -46 192 -86 25 -24 29 -25 43 -10 15 15 13 19
-27 48 -87 64 -144 84 -254 87 -78 3 -111 -1 -153 -15z"/>
<path d="M4536 1408 c4 -7 63 -100 131 -206 68 -107 123 -197 123 -202 0 -5
-58 -100 -128 -212 -70 -112 -132 -209 -136 -216 -6 -10 7 -12 63 -10 l72 3
262 410 c203 318 267 411 285 413 12 2 22 -1 22 -6 0 -5 -65 -111 -145 -235
l-145 -227 89 -137 c62 -97 95 -139 110 -141 11 -2 21 -1 21 2 0 3 -36 62 -80
131 -44 68 -83 130 -85 138 -3 7 64 122 150 255 85 134 155 245 155 248 0 2
-31 4 -69 4 l-69 0 -262 -410 c-193 -301 -268 -410 -281 -410 -11 0 -19 4 -19
10 0 5 54 95 121 199 l121 190 -134 211 c-110 174 -137 210 -156 210 -16 0
-21 -4 -16 -12z"/>
<path d="M2190 1320 c0 -19 7 -20 128 -20 108 0 132 -3 159 -20 90 -55 86
-205 -7 -252 -29 -15 -63 -18 -197 -18 -156 0 -163 -1 -163 -20 0 -19 7 -20
165 -20 199 0 226 -8 255 -72 37 -81 17 -158 -52 -195 -28 -15 -58 -18 -183
-18 l-150 0 0 100 0 100 139 3 c161 3 179 -4 174 -67 -4 -49 -32 -61 -140 -61
l-88 0 0 40 c0 33 -3 40 -20 40 -18 0 -20 -7 -20 -60 l0 -60 99 0 c124 0 154
6 186 38 19 18 25 35 25 66 0 89 -40 106 -247 106 l-143 0 0 -140 0 -140 176
0 c159 0 180 2 213 21 105 59 120 217 29 294 l-31 27 25 21 c40 33 60 83 60
147 0 61 -16 102 -54 137 -38 36 -73 43 -209 43 -122 0 -129 -1 -129 -20z"/>
<path d="M3859 1327 c-248 -70 -336 -379 -161 -566 109 -116 302 -146 425 -65
l37 24 0 110 0 110 -110 0 -110 0 0 -60 0 -60 50 0 c37 0 50 -4 50 -14 0 -35
-118 -39 -185 -6 -112 54 -155 195 -92 304 36 62 96 99 170 104 63 4 100 -6
158 -44 26 -17 26 -16 67 27 l42 44 -29 26 c-65 60 -219 92 -312 66z m229 -61
c55 -28 61 -36 38 -55 -10 -8 -27 -5 -71 15 -102 47 -220 21 -297 -64 -62 -69
-80 -172 -44 -265 20 -54 98 -130 152 -147 40 -14 145 -9 187 8 24 10 27 17
27 57 l0 45 -50 0 c-43 0 -50 3 -50 20 0 18 7 20 70 20 l70 0 0 -84 0 -84 -49
-21 c-61 -26 -157 -28 -224 -5 -64 22 -140 92 -174 162 -81 166 18 375 202
423 57 15 156 4 213 -25z"/>
<path d="M5050 935 c-10 -13 3 -39 82 -163 52 -81 98 -153 102 -159 5 -10 -10
-13 -66 -13 l-73 0 -91 140 -91 141 -88 -138 c-49 -76 -95 -148 -103 -160 -13
-22 -13 -23 9 -23 20 0 38 22 97 115 41 63 78 117 82 120 5 3 44 -49 87 -115
l78 -120 118 0 c64 0 117 2 117 5 0 5 -175 280 -224 352 -20 29 -25 31 -36 18z"/>
</g>
</svg>
